<?xml version="1.0" encoding="UTF-8"?>
<svg width="100px" height="100px" viewBox="0 0 100 100" version="1.1" xmlns="http://www.w3.org/2000/svg" xmlns:xlink="http://www.w3.org/1999/xlink">
    <!-- Generator: Sketch 53.1 (72631) - https://sketchapp.com -->
    <title>ic_no_message</title>
    <desc>Created with Sketch.</desc>
    <g id="ic_no_message" stroke="none" stroke-width="1" fill="none" fill-rule="evenodd">
        <g id="mailbox">
            <polygon id="Path" points="0 0 100 0 100 100 0 100"></polygon>
            <g id="Group" transform="translate(16.000000, 12.000000)" fill-rule="nonzero">
                <path d="M56.296,16.889 L49.541,16.889 L49.541,52.919 C49.5415521,54.1623547 50.5496452,55.1700001 51.793,55.17 L65.303,55.17 C65.9002676,55.1702653 66.473178,54.933256 66.8956974,54.5111116 C67.3182169,54.0889672 67.5557348,53.5162676 67.556,52.919 L67.556,28.149 C67.556,21.929 62.515,16.889 56.296,16.889 L56.296,16.889 Z" id="Path" fill="#A6A6A6"></path>
                <path d="M49.54,16.889 L51.793,16.889 C58.011,16.889 63.052,21.929 63.052,28.149 L63.052,52.919 C63.0514479,54.1623547 62.0433548,55.1700001 60.8,55.17 L40.533,55.17 C39.2896452,55.1700001 38.2815521,54.1623547 38.281,52.919 L38.281,28.149 C38.281,21.929 43.322,16.889 49.541,16.889 L49.54,16.889 Z" id="Path" fill="#E6E6E6"></path>
                <path d="M48.786,75.437 L54.044,70.663 C51.4034323,70.0116713 48.6188205,70.2943371 46.163,71.463 L52.288,61.926 C45.8526646,62.803311 40.5482168,67.4093195 38.777,73.658 L38.281,75.437 L48.786,75.437 L48.786,75.437 Z" id="Path" fill-opacity="0.6" fill="#FD345A"></path>
                <polygon id="Path" fill="#A6A6A6" points="33.778 52.919 38.282 52.919 38.282 75.438 33.778 75.438"></polygon>
                <polygon id="Path" fill="#C0C0C0" points="29.274 52.919 33.778 52.919 33.778 75.438 29.274 75.438"></polygon>
                <rect id="Rectangle" fill-opacity="0.6" fill="#FD345A" x="24.77" y="0" width="16.889" height="11.259" rx="2"></rect>
                <rect id="Rectangle" fill="#FD345A" x="24.77" y="0" width="4.504" height="36.03" rx="1.03"></rect>
                <path d="M49.54,19.14 L20.268,19.14 C17.8788485,19.1397347 15.5874744,20.088704 13.8980892,21.7780892 C12.208704,23.4674744 11.2597347,25.7588485 11.26,28.148 L11.26,52.918 C11.26,54.1617453 12.2682547,55.17 13.512,55.17 L56.297,55.17 C57.5403548,55.1700001 58.5484479,54.1623547 58.549,52.919 L58.549,28.149 C58.5492652,25.7600218 57.6004333,23.4687992 55.9112644,21.7794428 C54.2220954,20.0900863 51.9309782,19.141 49.542,19.141 L49.54,19.14 Z" id="Path" fill="#C0C0C0"></path>
                <path d="M18.015,16.889 L11.259,16.889 L11.259,52.919 C11.2595521,54.1623547 12.2676452,55.1700001 13.511,55.17 L27.022,55.17 C28.2653548,55.1700001 29.2734479,54.1623547 29.274,52.919 L29.274,28.149 C29.274,21.929 24.234,16.889 18.014,16.889 L18.015,16.889 Z" id="Path" fill="#A6A6A6"></path>
                <path d="M11.26,16.889 L13.511,16.889 C19.729,16.889 24.771,21.929 24.771,28.149 L24.771,52.919 C24.7704479,54.1623547 23.7623548,55.1700001 22.519,55.17 L2.252,55.17 C1.00903537,55.1700005 0.00110387622,54.1629641 -2.50022225e-16,52.92 L-2.50022225e-16,28.15 C-2.50022225e-16,21.93 5.04,16.89 11.26,16.89 L11.26,16.889 Z" id="Path" fill="#E6E6E6"></path>
                <rect id="Rectangle" fill="#A6A6A6" x="4.504" y="30.4" width="15.763" height="4.504" rx="1"></rect>
                <polygon id="Path" fill="#A6A6A6" points="29.274 55.17 38.281 55.17 38.281 61.926 29.274 61.926"></polygon>
            </g>
        </g>
    </g>
</svg>