<?xml version="1.0" encoding="UTF-8"?>
<svg width="100px" height="100px" viewBox="0 0 100 100" version="1.1" xmlns="http://www.w3.org/2000/svg" xmlns:xlink="http://www.w3.org/1999/xlink">
    <!-- Generator: Sketch 53.1 (72631) - https://sketchapp.com -->
    <title>no notfication</title>
    <desc>Created with Sketch.</desc>
    <g id="no-notfication" stroke="none" stroke-width="1" fill="none" fill-rule="evenodd">
        <g id="notfication-_empty_-copy" transform="translate(15.000000, 9.000000)" fill-rule="nonzero">
            <path d="M1.02,0.95 C1.15,0.95 1.28,0.94 1.41,0.94 C1.28,0.94 1.15,0.95 1.02,0.95 L1.02,0.95 Z" id="Path" fill="#A5A5A5"></path>
            <path d="M31.46,23.77 L32.08,23.63 C33.58,23.29 34.52,21.79 34.18,20.29 L31.75,9.67 C31.41,8.17 29.91,7.23 28.41,7.57 L27.79,7.71 C26.29,8.05 25.35,9.55 25.69,11.05 L28.12,21.67 C28.46,23.17 29.96,24.11 31.46,23.77 Z" id="Path" fill="#FD345A"></path>
            <path d="M11.06,67.56 L11.6,70.71 C12.2,74.18 15.49,76.51 18.96,75.92 L41.36,72.08 L41.46,72.06 L63.77,67.72 C67.23,67.05 69.49,63.7 68.81,60.24 L68.2,57.1 C67.53,53.64 64.18,51.38 60.72,52.06 L59.5,52.3 L53.94,28.98 C51.47,18.59 41.27,12 30.79,14.02 L30.78,14.02 C20.25,16.04 13.1,25.91 14.47,36.55 L17.48,59.99 L16.26,60.2 C12.79,60.79 10.46,64.09 11.06,67.56 Z" id="Path" fill="#E6E6E6"></path>
            <path d="M11.06,67.56 L11.6,70.71 C12.2,74.18 15.49,76.51 18.96,75.92 L25.46,74.81 C22.05,75.31 18.84,73 18.25,69.58 L17.71,66.43 C17.11,62.96 19.44,59.66 22.92,59.06 L24.14,58.85 L21.13,35.41 C21.02,34.53 20.96,33.66 20.96,32.8 C20.96,24.18 26.45,16.48 34.56,13.65 C33.32,13.65 32.06,13.77 30.8,14.01 L30.79,14.01 C21.11,15.88 14.3,24.34 14.3,33.94 C14.3,34.8 14.35,35.67 14.47,36.55 L17.48,59.99 L16.26,60.2 C12.79,60.79 10.46,64.09 11.06,67.56 Z" id="Path" fill="#A6A6A6"></path>
            <polygon id="Path" stroke="#1B6EC9" stroke-width="0.25" fill="#CACCCE" points="41.46 72.06 41.36 72.08"></polygon>
            <path d="M29.69,74.07 L29.93,75.55 C30.49,79.05 33.79,81.42 37.28,80.86 L39.13,80.56 C42.63,80 45,76.7 44.44,73.21 L44.17,71.53 L41.47,72.05 L41.37,72.07 L29.69,74.07 Z" id="Path" fill="#FF3056" opacity="0.61"></path>
            <path d="M11.06,67.57 L11.6,70.72 C12.2,74.19 15.49,76.52 18.96,75.93 L41.36,72.09 L41.46,72.07 L63.77,67.73 C67.23,67.06 69.49,63.71 68.81,60.25 L68.2,57.11 C67.53,53.65 64.18,51.39 60.72,52.07 L59.5,52.31 L17.48,60 L16.26,60.21 C12.79,60.8 10.46,64.1 11.06,67.57 Z" id="Path" fill="#C0C0C0"></path>
        </g>
    </g>
</svg>