<?xml version="1.0" encoding="UTF-8"?>
<svg width="100px" height="100px" viewBox="0 0 100 100" version="1.1" xmlns="http://www.w3.org/2000/svg" xmlns:xlink="http://www.w3.org/1999/xlink">
    <!-- Generator: Sketch 53.1 (72631) - https://sketchapp.com -->
    <title>error</title>
    <desc>Created with Sketch.</desc>
    <g id="error" stroke="none" stroke-width="1" fill="none" fill-rule="evenodd">
        <g id="favorit_empty1_svg" transform="translate(8.000000, 29.000000)" fill-rule="nonzero">
            <path d="M77.8785,16.6063323 L58.2225,15.228624 L54.348,6.10652554 C53.277,3.58072711 50.778,1.93165209 48.0165,1.93165209 L25.5465,1.93165209 C22.7745,1.93165209 20.265,3.59116429 19.2045,6.13783709 L15.393,15.228624 L5.0925,16.5123976 C3.3705,16.7315785 2.079,18.182347 2.079,19.9044823 L2.079,21.3030649 L2.6145,29.7258721 L9.03,29.7258721 L9.03,33.3684491 L13.1985,33.3684491 C13.5345,29.6006259 16.716,26.6469029 20.5905,26.6469029 C24.465,26.6469029 27.6465,29.6006259 27.9825,33.3684491 L54.915,33.3684491 C55.251,29.6006259 58.4325,26.6469029 62.307,26.6469029 C66.1815,26.6469029 69.363,29.6006259 69.699,33.3684491 L73.899,33.3684491 L73.899,29.7049977 L81.942,29.7049977 L81.942,25.6240589 L81.1965,24.6429636 L81.942,21.2613162 L81.942,20.9168891 C81.9315,18.6624574 80.157,16.7733272 77.8785,16.6063323 L77.8785,16.6063323 Z" id="Path" fill="#BFBFBF"></path>
            <rect id="Rectangle" fill="#E5E5E5" x="6.489" y="25.5196871" width="75.4425" height="7.85919926"></rect>
            <g id="Group" transform="translate(12.600000, 26.344225)">
                <ellipse id="Oval" fill="#A5A5A5" cx="7.9695" cy="7.68176714" rx="7.4235" ry="7.37908882"></ellipse>
                <ellipse id="Oval" fill="#A5A5A5" cx="49.686" cy="7.68176714" rx="7.4235" ry="7.37908882"></ellipse>
                <ellipse id="Oval" fill="#E5E5E5" cx="49.686" cy="7.68176714" rx="3.192" ry="3.17290382"></ellipse>
                <ellipse id="Oval" fill="#E5E5E5" cx="7.9695" cy="7.68176714" rx="3.192" ry="3.17290382"></ellipse>
            </g>
            <g id="Group" transform="translate(8.400000, 15.907041)" fill="#E5E5E5">
                <path d="M0.5985,14.2050069 L0.5985,17.4614082 L4.767,17.4614082 C4.872,16.2715693 5.2605,15.1652278 5.8695,14.2050069 L0.5985,14.2050069 L0.5985,14.2050069 Z" id="Path"></path>
                <path d="M18.459,14.2050069 C19.068,15.1652278 19.4565,16.2715693 19.5615,17.4614082 L46.494,17.4614082 C46.599,16.2715693 46.9875,15.1652278 47.5965,14.2050069 L18.459,14.2050069 L18.459,14.2050069 Z" id="Path"></path>
                <path d="M69.4785,0.699291302 L68.1345,0.60535665 C68.25,1.00196963 68.3445,1.34639669 68.3445,1.77432121 L68.2185,5.23946618 C68.2185,9.61264611 63.987,12.7542384 59.9445,13.8605798 C60.6795,14.893861 61.152,16.1254487 61.278,17.4614082 L65.478,17.4614082 L65.478,13.7979567 L73.521,13.7979567 L73.521,9.71701795 L72.7755,8.73592269 L73.521,5.3542752 L73.521,5.00984814 C73.5315,2.75541647 71.757,0.86628624 69.4785,0.699291302 Z" id="Path"></path>
            </g>
            <path d="M26.376,6.01259089 C24.7485,6.01259089 23.2785,6.98324896 22.659,8.47576622 L20.1705,14.4249609 C20.013,14.8111367 20.2965,15.2390612 20.7165,15.2390612 L30.702,15.2390612 C31.0275,15.2390612 31.29,14.9781316 31.29,14.6545789 L31.29,6.59707317 C31.29,6.27352048 31.0275,6.01259089 30.702,6.01259089 L26.376,6.01259089 Z" id="Path" fill="#FFFFFF"></path>
            <path d="M50.883,8.45489185 C50.253,6.97281178 48.7935,6.0021537 47.166,6.0021537 L35.973,6.0021537 C35.6475,6.0021537 35.385,6.26308329 35.385,6.58663599 L35.385,14.6441417 C35.385,14.9676944 35.6475,15.228624 35.973,15.228624 L52.878,15.228624 C53.298,15.228624 53.5815,14.8006995 53.424,14.4145237 L50.883,8.45489185 Z" id="Path" fill="#FCFDFE"></path>
            <path d="M26.376,6.01259089 C26.3655,6.02302807 26.3655,6.02302807 26.3655,6.02302807 L26.3655,8.85150483 C26.3655,10.5736401 24.9585,11.9617855 23.2365,11.9617855 L21.1995,11.9617855 L20.1705,14.4145237 C20.013,14.8006995 20.2965,15.228624 20.7165,15.228624 L30.702,15.228624 C31.0275,15.228624 31.29,14.9676944 31.29,14.6441417 L31.29,6.58663599 C31.29,6.26308329 31.0275,6.0021537 30.702,6.0021537 L26.376,6.01259089 Z" id="Path" fill="#FFFFFF"></path>
            <path d="M72.5235,21.595306 L72.5235,23.0982605 C72.5235,24.43422 73.6155,25.5196871 74.9595,25.5196871 L76.629,25.5196871 L76.629,21.1569443 L72.9645,21.1569443 C72.7125,21.1569443 72.5235,21.3552508 72.5235,21.595306 L72.5235,21.595306 Z" id="Path" fill="#FF3056"></path>
            <polygon id="Path" fill="#FF839A" points="76.6185 21.1569443 81.9315 21.1569443 81.9315 25.5196871 76.6185 25.5196871"></polygon>
            <path d="M6.489,23.4009388 C6.489,22.2424114 5.544,21.3030649 4.3785,21.3030649 L2.058,21.3030649 L2.058,25.5196871 L6.489,25.5196871 L6.489,23.4009388 Z" id="Path" fill="#FF839A"></path>
            <polygon id="Path" fill="#FF3056" points="2.058 25.5196871 6.489 25.5196871 6.489 29.7363092 2.058 29.7363092"></polygon>
            <path d="M9.009,28.5047216 L1.2285,28.5047216 C0.546,28.5047216 0,29.0578923 0,29.7363092 L0,34.5374137 C0,35.2158306 0.546,35.7585642 1.2285,35.7585642 L9.009,35.7585642 C9.6915,35.7585642 10.2375,35.2158306 10.2375,34.5374137 L10.2375,29.7363092 C10.2375,29.0578923 9.681,28.5047216 9.009,28.5047216 Z" id="Path" fill="#A5A5A5"></path>
            <path d="M82.761,28.4942844 L73.878,28.4942844 C73.1955,28.4942844 72.6495,29.0370179 72.6495,29.7154349 L72.6495,34.5269765 C72.6495,35.2053935 73.1955,35.748127 73.878,35.748127 L82.761,35.748127 C83.4435,35.748127 83.9895,35.2053935 83.9895,34.5269765 L83.9895,29.7154349 C84,29.0370179 83.4435,28.4942844 82.761,28.4942844 Z" id="Path" fill="#A5A5A5"></path>
            <path d="M58.212,15.228624 L59.9445,15.3538702 L73.899,3.30936033 C75.138,2.2447676 77.007,2.3073907 78.162,3.4554809 C78.645,3.93559135 79.422,3.93559135 79.905,3.4554809 C80.388,2.97537046 80.388,2.20301887 79.905,1.72290842 C77.8365,-0.333216751 74.487,-0.448025771 72.282,1.45154165 L57.708,14.0492223 L58.212,15.228624 Z" id="Path" fill="#A5A5A5"></path>
            <path d="M41.013,20.5307133 L36.6555,20.5307133 C35.973,20.5307133 35.427,19.9879798 35.427,19.3095628 C35.427,18.6311459 35.973,18.0884123 36.6555,18.0884123 L41.013,18.0884123 C41.6955,18.0884123 42.2415,18.6311459 42.2415,19.3095628 C42.2415,19.9879798 41.6955,20.5307133 41.013,20.5307133 L41.013,20.5307133 Z" id="Path" fill="#A5A5A5"></path>
        </g>
    </g>
</svg>