<?xml version="1.0" encoding="UTF-8"?>
<svg width="4px" height="18px" viewBox="0 0 4 18" version="1.1" xmlns="http://www.w3.org/2000/svg" xmlns:xlink="http://www.w3.org/1999/xlink">
    <!-- Generator: Sketch 53.1 (72631) - https://sketchapp.com -->
    <title>ic_more</title>
    <desc>Created with Sketch.</desc>
    <g id="Page-1" stroke="none" stroke-width="1" fill="none" fill-rule="evenodd" opacity="0.602399554">
        <g id="Messages" transform="translate(-1361.000000, -110.000000)" fill="#202741" fill-rule="nonzero">
            <g id="ic_more" transform="translate(1351.000000, 107.000000)">
                <path d="M19.183754,10.2099992 C20.1723437,10.2099992 20.973754,11.0114095 20.973754,11.9999992 C20.973754,12.9885889 20.1723437,13.7899992 19.183754,13.7899992 C18.1951643,13.7899992 17.393754,12.9885889 17.393754,11.9999992 C17.393754,11.0114095 18.1951643,10.2099992 19.183754,10.2099992 Z M4.81624602,10.2099992 C5.80483573,10.2099992 6.60624602,11.0114095 6.60624602,11.9999992 C6.60624602,12.9885889 5.80483573,13.7899992 4.81624602,13.7899992 C3.82765632,13.7899992 3.02624602,12.9885889 3.02624602,11.9999992 C3.02624602,11.0114095 3.82765632,10.2099992 4.81624602,10.2099992 Z M11.9600019,10.2104468 C12.4416316,10.1996814 12.9072692,10.3835069 13.2516609,10.7203709 C13.5960526,11.0572349 13.7901222,11.5186968 13.7900019,12.0004468 C13.7897564,12.9837749 12.9963405,13.7827909 12.0130384,13.7899523 C11.0297363,13.7971138 10.2247665,13.009739 10.2101985,12.0265188 C10.1956304,11.0432985 10.9769193,10.2324206 11.9600019,10.2104468 Z" id="Combined-Shape" transform="translate(12.000000, 12.000000) rotate(-90.000000) translate(-12.000000, -12.000000) "></path>
            </g>
        </g>
    </g>
</svg>